<?xml version="1.0" standalone="no"?>
<!DOCTYPE svg PUBLIC "-//W3C//DTD SVG 20010904//EN"
 "http://www.w3.org/TR/2001/REC-SVG-20010904/DTD/svg10.dtd">
<svg version="1.0" xmlns="http://www.w3.org/2000/svg"
 width="512.000000pt" height="512.000000pt" viewBox="0 0 512.000000 512.000000"
 preserveAspectRatio="xMidYMid meet">

<g transform="translate(0.000000,512.000000) scale(0.100000,-0.100000)"
fill="#000000" stroke="none">
<path d="M4141 4790 c-463 -64 -810 -498 -753 -942 13 -103 46 -212 89 -291
49 -90 768 -1207 775 -1204 4 1 181 273 393 605 247 385 396 629 415 675 87
218 76 466 -30 676 -139 277 -427 466 -736 484 -49 3 -118 2 -153 -3z m259
-940 l0 -150 -150 0 -150 0 0 150 0 150 150 0 150 0 0 -150z"/>
<path d="M782 4012 l-782 -225 0 -814 c0 -585 3 -813 11 -813 12 0 1551 448
1556 453 2 2 2 368 1 814 l-3 810 -783 -225z"/>
<path d="M1872 3413 l3 -818 680 -281 680 -282 3 696 2 695 -60 121 c-57 114
-100 246 -100 306 0 26 -3 27 -592 203 -326 98 -599 178 -606 177 -10 0 -12
-167 -10 -817z"/>
<path d="M4680 2456 l-431 -673 -227 -63 c-125 -34 -284 -78 -354 -97 l-128
-36 0 -610 0 -609 28 7 c40 10 1449 423 1505 441 l47 16 0 1149 c0 632 -2
1149 -4 1149 -2 0 -198 -303 -436 -674z"/>
<path d="M3534 2801 c3 -68 6 -297 6 -508 0 -339 2 -383 16 -383 8 0 129 30
269 66 l253 67 -65 106 c-36 58 -156 252 -266 431 -110 179 -204 330 -210 335
-6 7 -7 -33 -3 -114z"/>
<path d="M775 2066 l-770 -223 -3 -761 c-2 -608 0 -760 10 -757 7 3 359 106
783 229 l770 224 3 756 c2 602 0 756 -10 755 -7 0 -359 -101 -783 -223z"/>
<path d="M1870 1527 l0 -745 48 -16 c26 -8 327 -99 670 -201 343 -102 630
-189 638 -192 12 -4 14 90 14 668 l0 674 -664 273 c-365 150 -673 276 -685
279 l-21 5 0 -745z"/>
</g>
</svg>
